<svg xmlns="http://www.w3.org/2000/svg" version="1.1" xmlns:xlink="http://www.w3.org/1999/xlink" xmlns:svgjs="http://svgjs.dev/svgjs" width="1000" height="1000" viewBox="0 0 1000 1000"><rect width="1000" height="1000" fill="#ffffff"></rect><g transform="matrix(0.7,0,0,0.7,149.57575757575756,417.98836408144484)"><svg viewBox="0 0 396 93" data-background-color="#ffffff" preserveAspectRatio="xMidYMid meet" height="234" width="1000" xmlns="http://www.w3.org/2000/svg" xmlns:xlink="http://www.w3.org/1999/xlink"><g id="tight-bounds" transform="matrix(1,0,0,1,0.2400000000000091,0.06338303068150708)"><svg viewBox="0 0 395.52 92.87323393863701" height="92.87323393863701" width="395.52"><g><svg viewBox="0 0 550.7239608905926 129.31714010771842" height="92.87323393863701" width="395.52"><g transform="matrix(1,0,0,1,155.2039608905926,37.244918536049056)"><svg viewBox="0 0 395.52 54.8273030356203" height="54.8273030356203" width="395.52"><g id="textblocktransform"><svg viewBox="0 0 395.52 54.8273030356203" height="54.8273030356203" width="395.52" id="textblock"><g><svg viewBox="0 0 395.52 54.8273030356203" height="54.8273030356203" width="395.52"><g transform="matrix(1,0,0,1,0,0)"><svg width="395.52" viewBox="3.75 -38.8 290.93 39.5" height="54.8273030356203" data-palette-color="#0080ff"><g class="wordmark-text-0" data-fill-palette-color="primary" id="text-0"><path d="M18.15-28.35L12.85-6.25Q13.4-6.2 13.98-6.18 14.55-6.15 15.55-6.15L15.55-6.15Q18.8-6.15 21.43-7.15 24.05-8.15 25.88-10.03 27.7-11.9 28.7-14.63 29.7-17.35 29.7-20.75L29.7-20.75Q29.7-22.5 29.25-23.93 28.8-25.35 27.78-26.38 26.75-27.4 25.13-27.95 23.5-28.5 21.2-28.5L21.2-28.5Q19.7-28.5 18.15-28.35L18.15-28.35ZM37.7-21.15L37.7-21.15Q37.7-16.1 36.05-12.1 34.4-8.1 31.33-5.33 28.25-2.55 23.85-1.05 19.45 0.45 13.9 0.45L13.9 0.45Q11.8 0.45 9.05 0.2 6.3-0.05 3.75-0.6L3.75-0.6 11.8-34.05Q14.65-34.6 17.28-34.83 19.9-35.05 22-35.05L22-35.05Q25.7-35.05 28.63-34.05 31.55-33.05 33.58-31.2 35.6-29.35 36.65-26.8 37.7-24.25 37.7-21.15ZM51.3 0.7L51.3 0.7Q48.65 0.7 46.7-0.1 44.75-0.9 43.47-2.35 42.2-3.8 41.55-5.78 40.9-7.75 40.9-10.15L40.9-10.15Q40.9-13.15 41.87-16.15 42.85-19.15 44.75-21.55 46.65-23.95 49.4-25.48 52.15-27 55.7-27L55.7-27Q58.3-27 60.27-26.2 62.25-25.4 63.52-23.95 64.8-22.5 65.45-20.53 66.1-18.55 66.1-16.15L66.1-16.15Q66.1-13.15 65.15-10.15 64.2-7.15 62.35-4.75 60.5-2.35 57.72-0.83 54.95 0.7 51.3 0.7ZM55-20.7L55-20.7Q53.35-20.7 52.1-19.75 50.85-18.8 50-17.35 49.15-15.9 48.72-14.18 48.3-12.45 48.3-10.9L48.3-10.9Q48.3-8.35 49.1-6.98 49.9-5.6 52-5.6L52-5.6Q53.65-5.6 54.9-6.55 56.15-7.5 57-8.95 57.85-10.4 58.27-12.13 58.7-13.85 58.7-15.4L58.7-15.4Q58.7-17.95 57.9-19.33 57.1-20.7 55-20.7ZM68.09 0L74.14-25.1Q75-25.35 76.02-25.68 77.05-26 78.32-26.28 79.59-26.55 81.17-26.73 82.75-26.9 84.75-26.9L84.75-26.9Q90.64-26.9 92.84-23.5 95.05-20.1 93.59-14.2L93.59-14.2 90.19 0 82.75 0 86.05-13.9Q86.34-15.2 86.52-16.43 86.69-17.65 86.5-18.57 86.3-19.5 85.57-20.08 84.84-20.65 83.34-20.65L83.34-20.65Q81.89-20.65 80.39-20.35L80.39-20.35 75.55 0 68.09 0ZM124.34-24.95L121.09-11.35Q120.39-8.5 120.69-5.63 120.99-2.75 121.84-0.5L121.84-0.5 115.19 0.45Q114.89-0.15 114.64-0.7 114.39-1.25 114.14-1.95L114.14-1.95Q112.74-0.8 111.04-0.05 109.34 0.7 107.24 0.7L107.24 0.7Q104.74 0.7 102.97-0.18 101.19-1.05 100.07-2.53 98.94-4 98.44-5.98 97.94-7.95 97.94-10.2L97.94-10.2Q97.94-13.65 99.17-16.7 100.39-19.75 102.57-22.03 104.74-24.3 107.69-25.6 110.64-26.9 114.09-26.9L114.09-26.9Q114.54-26.9 115.67-26.85 116.79-26.8 118.24-26.63 119.69-26.45 121.29-26.05 122.89-25.65 124.34-24.95L124.34-24.95ZM113.94-12.65L115.89-20.55Q115.24-20.65 114.72-20.7 114.19-20.75 113.44-20.75L113.44-20.75Q111.74-20.75 110.27-19.9 108.79-19.05 107.69-17.68 106.59-16.3 105.97-14.5 105.34-12.7 105.34-10.75L105.34-10.75Q105.34-8.35 106.14-6.95 106.94-5.55 109.09-5.55L109.09-5.55Q110.24-5.55 111.17-6 112.09-6.45 113.14-7.5L113.14-7.5Q113.24-8.75 113.47-10.13 113.69-11.5 113.94-12.65L113.94-12.65ZM138.24-5.65L136.74 0.5Q133.19 0.5 131.16-0.43 129.14-1.35 128.27-2.95 127.39-4.55 127.42-6.63 127.44-8.7 127.99-11.05L127.99-11.05 134.34-37.6 142.09-38.8 135.14-10Q134.94-9.1 134.91-8.35 134.89-7.6 135.19-7.03 135.49-6.45 136.22-6.1 136.94-5.75 138.24-5.65L138.24-5.65ZM152.44 0.7L152.44 0.7Q149.94 0.7 148.16-0.15 146.39-1 145.26-2.48 144.14-3.95 143.61-5.93 143.09-7.9 143.09-10.15L143.09-10.15Q143.09-13.55 144.31-16.57 145.54-19.6 147.69-21.85 149.84-24.1 152.79-25.4 155.74-26.7 159.24-26.7L159.24-26.7Q160.14-26.7 160.91-26.6 161.69-26.5 162.49-26.3L162.49-26.3 165.19-37.6 172.94-38.8 166.34-11.35Q165.64-8.5 165.94-5.63 166.24-2.75 167.09-0.5L167.09-0.5 160.44 0.45Q160.14-0.15 159.89-0.7 159.64-1.25 159.39-1.95L159.39-1.95Q157.99-0.8 156.26-0.05 154.54 0.7 152.44 0.7ZM159.19-12.65L161.04-20.35Q160.74-20.4 160.51-20.45 160.29-20.5 160.06-20.53 159.84-20.55 159.49-20.55 159.14-20.55 158.59-20.55L158.59-20.55Q156.84-20.55 155.34-19.73 153.84-18.9 152.76-17.5 151.69-16.1 151.09-14.33 150.49-12.55 150.49-10.7L150.49-10.7Q150.49-8.3 151.31-6.93 152.14-5.55 154.29-5.55L154.29-5.55Q155.44-5.55 156.39-6 157.34-6.45 158.39-7.5L158.39-7.5Q158.49-8.75 158.71-10.13 158.94-11.5 159.19-12.65L159.19-12.65Z" fill="#0080ff" data-fill-palette-color="primary"></path><path d="M203.09-28.35L197.79-6.25Q198.34-6.2 198.91-6.18 199.49-6.15 200.49-6.15L200.49-6.15Q203.74-6.15 206.36-7.15 208.99-8.15 210.81-10.03 212.64-11.9 213.64-14.63 214.64-17.35 214.64-20.75L214.64-20.75Q214.64-22.5 214.19-23.93 213.74-25.35 212.71-26.38 211.69-27.4 210.06-27.95 208.44-28.5 206.14-28.5L206.14-28.5Q204.64-28.5 203.09-28.35L203.09-28.35ZM222.64-21.15L222.64-21.15Q222.64-16.1 220.99-12.1 219.34-8.1 216.26-5.33 213.19-2.55 208.79-1.05 204.39 0.45 198.84 0.45L198.84 0.45Q196.74 0.45 193.99 0.2 191.24-0.05 188.69-0.6L188.69-0.6 196.74-34.05Q199.59-34.6 202.21-34.83 204.84-35.05 206.94-35.05L206.94-35.05Q210.64-35.05 213.56-34.05 216.49-33.05 218.51-31.2 220.54-29.35 221.59-26.8 222.64-24.25 222.64-21.15ZM238.03-26.3L231.74 0 224.34 0 230.59-26.3 238.03-26.3ZM235.34-29.5L235.34-29.5Q233.79-29.5 232.54-30.43 231.29-31.35 231.29-33.25L231.29-33.25Q231.29-34.3 231.71-35.23 232.14-36.15 232.84-36.83 233.54-37.5 234.46-37.9 235.39-38.3 236.44-38.3L236.44-38.3Q237.99-38.3 239.24-37.38 240.49-36.45 240.49-34.55L240.49-34.55Q240.49-33.5 240.06-32.58 239.64-31.65 238.94-30.98 238.24-30.3 237.31-29.9 236.39-29.5 235.34-29.5ZM266.38-24.95L263.13-11.35Q262.43-8.5 262.73-5.63 263.03-2.75 263.88-0.5L263.88-0.5 257.23 0.45Q256.93-0.15 256.68-0.7 256.43-1.25 256.18-1.95L256.18-1.95Q254.78-0.8 253.08-0.05 251.38 0.7 249.28 0.7L249.28 0.7Q246.78 0.7 245.01-0.18 243.23-1.05 242.11-2.53 240.98-4 240.48-5.98 239.98-7.95 239.98-10.2L239.98-10.2Q239.98-13.65 241.21-16.7 242.43-19.75 244.61-22.03 246.78-24.3 249.73-25.6 252.68-26.9 256.13-26.9L256.13-26.9Q256.58-26.9 257.71-26.85 258.83-26.8 260.28-26.63 261.73-26.45 263.33-26.05 264.93-25.65 266.38-24.95L266.38-24.95ZM255.98-12.65L257.93-20.55Q257.28-20.65 256.76-20.7 256.23-20.75 255.48-20.75L255.48-20.75Q253.78-20.75 252.31-19.9 250.83-19.05 249.73-17.68 248.63-16.3 248.01-14.5 247.38-12.7 247.38-10.75L247.38-10.75Q247.38-8.35 248.18-6.95 248.98-5.55 251.13-5.55L251.13-5.55Q252.28-5.55 253.21-6 254.13-6.45 255.18-7.5L255.18-7.5Q255.28-8.75 255.51-10.13 255.73-11.5 255.98-12.65L255.98-12.65ZM294.68-26.3L293.48-21.35Q292.33-20.35 290.48-18.63 288.63-16.9 286.48-14.83 284.33-12.75 282.08-10.48 279.83-8.2 277.88-6.1L277.88-6.1 290.08-6.1 288.58 0 267.38 0 268.43-4.35Q269.88-6.15 271.76-8.25 273.63-10.35 275.66-12.5 277.68-14.65 279.71-16.63 281.73-18.6 283.48-20.2L283.48-20.2 272.78-20.2 274.28-26.3 294.68-26.3Z" fill="#0023ff" data-fill-palette-color="secondary"></path></g></svg></g></svg></g></svg></g></svg></g><g><svg viewBox="0 0 129.31714010771842 129.31714010771842" height="129.31714010771842" width="129.31714010771842"><g><svg></svg></g><g id="icon-0"><svg viewBox="0 0 129.31714010771842 129.31714010771842" height="129.31714010771842" width="129.31714010771842"><g><path d="M0 64.659c0-35.71 28.949-64.659 64.659-64.659 35.71 0 64.659 28.949 64.658 64.659 0 35.71-28.949 64.659-64.658 64.658-35.71 0-64.659-28.949-64.659-64.658zM64.659 124.373c32.979 0 59.714-26.735 59.714-59.714 0-32.979-26.735-59.714-59.714-59.715-32.979 0-59.714 26.735-59.715 59.715 0 32.979 26.735 59.714 59.715 59.714z" data-fill-palette-color="accent" fill="#0023ff" stroke="transparent"></path></g><g transform="matrix(1,0,0,1,42.426066028217015,31.076216901598308)"><svg viewBox="0 0 44.465008051284386 67.1647063045218" height="67.1647063045218" width="44.465008051284386"><g><svg xmlns="http://www.w3.org/2000/svg" xmlns:xlink="http://www.w3.org/1999/xlink" version="1.1" x="0" y="0" viewBox="24.761855407245655 5 59.58264309935908 90" enable-background="new 0 0 100 100" xml:space="preserve" width="44.465008051284386" height="67.1647063045218" class="icon-z$-0" data-fill-palette-color="accent" id="z$-0"><g fill="#0023ff" data-fill-palette-color="accent"><path d="M73.76 35.603C86.875 48 91.5 66.25 65.633 82.379c3.64-4.928 5.654-9.794 6.096-14.669 0.951-10.516-5.606-19.072-12.835-26.752C48.298 29.7 47.51 18.84 56.413 6.782 54.578 22.641 64.6 26.944 73.76 35.603zM45.288 93.716c6.184-13.053 7.276-20.302-8.197-34.939-4.204-3.977-7.451-8.029-9.71-12.086-2.881 6.435-5.164 20.081 3.244 27.935C36.312 79.938 44.125 83.125 45.288 93.716zM56.709 43.014C48.183 33.954 41.999 21.253 54 5 21.497 17.692 19.625 38.125 39.151 56.597 55.603 72.158 54.75 80.75 48 95 79.875 71.5 68.709 55.764 56.709 43.014z" fill="#0023ff" data-fill-palette-color="accent"></path></g></svg></g></svg></g></svg></g></svg></g></svg></g><defs></defs></svg><rect width="395.52" height="92.87323393863701" fill="none" stroke="none" visibility="hidden"></rect></g></svg></g></svg>